# xmcd
#
# Track frame offsets: 
#        150
#        16202
#        31667
#        51175
#        66517
#        76800
#        90022
#        102430
#        118822
#        138842
#        153350
#
# Disc length: 2141 seconds
#
# Revision: 1
# Processed by: cddbd v1.5.2PL0 Copyright (c) Steve Scherf et al.
# Submitted via: ExactAudioCopy v0.99pb5
#
DISCID=7d085b0b
DTITLE=Chicken Shack - 100 Ton Chicken
DYEAR=1969
DGENRE=Blues
TTITLE0=The Road Of Love
TTITLE1=Look Ma, I'm Cryin'
TTITLE2=Evelyn
TTITLE3=Reconsider Baby
TTITLE4=Weekend Love
TTITLE5=Midnight Hour
TTITLE6=Tears In The Wind
TTITLE7=Horse And Cart
TTITLE8=The Way It Is
TTITLE9=Still Worried About My Woman
TTITLE10=Anji
EXTD=
EXTT0=
EXTT1=
EXTT2=
EXTT3=
EXTT4=
EXTT5=
EXTT6=
EXTT7=
EXTT8=
EXTT9=
EXTT10=
PLAYORDER=
